<svg width="126" height="157" viewBox="0 0 126 157" fill="none" xmlns="http://www.w3.org/2000/svg">
<path d="M58.6492 4.10046C58.6492 4.10046 57.5064 5.71943 55.3161 5.71943C54.078 5.71943 52.4591 5.14803 50.5544 3.62429C48.6497 2.00532 47.8307 1.16726 45.507 0.386348C43.4404 -0.308857 40.6977 -0.108867 39.1263 1.33868C35.7932 4.76709 37.2217 8.00504 37.5074 8.86214C37.5074 8.86214 40.8406 13.2429 49.5068 13.2429C51.3163 13.2429 53.1257 12.9572 54.7447 12.1001C60.173 9.14784 58.6492 4.10046 58.6492 4.10046Z" fill="#2D2D2D"/>
<path d="M58.6492 4.10046C58.6492 4.10046 57.5064 5.71943 55.3161 5.71943C54.078 5.71943 52.4591 5.14803 50.5544 3.62429C48.6497 2.00532 47.8307 1.16726 45.507 0.386348C43.4404 -0.308857 40.6977 -0.108867 39.1263 1.33868C35.7932 4.76709 37.2217 8.00504 37.5074 8.86214C37.5074 8.86214 40.8406 13.2429 49.5068 13.2429C51.3163 13.2429 53.1257 12.9572 54.7447 12.1001C60.173 9.14784 58.6492 4.10046 58.6492 4.10046Z" fill="#0F3B7C"/>
<path d="M58.6492 4.10046C58.6492 4.10046 57.5064 5.71944 55.3161 5.71944C54.078 5.71944 37.2217 8.00504 37.5074 8.86214C37.5074 8.86214 40.8405 13.2429 49.5068 13.2429C51.3162 13.2429 53.1257 12.9572 54.7447 12.1001C60.173 9.14785 58.6492 4.10046 58.6492 4.10046Z" fill="url(#paint0_radial_2_185)"/>
<path d="M50.5544 3.62429C48.6497 2.00532 47.8307 1.16726 45.507 0.386348C43.4404 -0.308857 40.6977 -0.108867 39.1263 1.33868C35.7932 4.76709 37.2217 8.00504 37.5074 8.86214C37.5074 8.86214 52.4591 5.14803 50.5544 3.62429Z" fill="url(#paint1_radial_2_185)"/>
<path d="M40.6501 2.48151H41.031C43.1262 2.48151 44.7451 4.19571 44.6499 6.29085V6.67179C44.6499 8.76693 42.9357 10.3859 40.8406 10.2907H40.4596C38.3645 10.2907 36.7455 8.57646 36.7455 6.48132V6.10039C36.8407 4.10048 38.555 2.38628 40.6501 2.48151Z" fill="url(#paint2_radial_2_185)"/>
<path d="M41.9834 6.38607C42.6145 6.38607 43.1262 5.87442 43.1262 5.24327C43.1262 4.61211 42.6145 4.10046 41.9834 4.10046C41.3522 4.10046 40.8406 4.61211 40.8406 5.24327C40.8406 5.87442 41.3522 6.38607 41.9834 6.38607Z" fill="white"/>
<path d="M112.523 79.3636C110.99 80.4778 99.5235 82.4016 106.666 78.3732C111.361 75.7257 113.78 66.9356 103.161 64.2786C92.2953 61.5835 80.6863 80.535 79.0293 84.5062C75.0961 93.9248 69.6487 101.839 58.4778 107.524C48.4878 112.619 39.1645 113.095 27.4984 107.448C17.994 102.848 14.9656 94.1534 16.2703 82.8015C16.4322 81.3635 16.6131 80.1064 16.8036 79.0017C16.9369 78.2208 17.0703 77.5161 17.2036 76.8685C18.5273 70.4402 19.8225 69.5641 17.8131 60.7264L35.1742 58.7931L38.1455 58.4598L62.5348 55.7361C62.5348 62.1358 61.8015 66.9927 52.4972 76.0019C48.8021 79.5826 42.4596 82.6301 41.1644 87.3251C40.7358 88.8965 40.4501 90.5726 41.8501 92.6582C43.45 95.0581 54.7447 100.763 65.4585 85.5538C66.5537 84.0015 72.62 74.7924 74.2676 72.3068C78.3245 66.1833 82.7434 60.7835 89.505 57.4122C113.313 45.5271 124.665 70.5354 112.523 79.3636Z" fill="url(#paint3_radial_2_185)"/>
<path d="M42.6405 72.1258C39.3264 75.1923 35.4408 77.5637 31.8124 80.2588C28.184 82.9539 24.7175 86.0775 22.6986 90.1155C20.6796 94.1534 20.3558 99.2865 22.8414 103.058C23.9461 104.734 27.1269 108.229 35.3361 110.429C35.3361 110.429 22.5176 104.181 29.8506 93.6677C32.1743 90.3345 41.7358 84.7633 44.8213 82.1254C47.9069 79.4874 47.2212 80.5635 50.0401 77.6398C53.2495 74.3162 57.3541 69.3831 59.0207 65.0785C60.192 62.0501 61.8491 57.1075 56.7255 57.1075C51.602 57.1075 45.5737 69.4212 42.6405 72.1258Z" fill="url(#paint4_linear_2_185)"/>
<path d="M93.3619 95.22C92.781 95.0295 92.1143 94.82 91.9429 94.4771C89.6954 89.9155 91.2382 84.8681 95.7047 82.192C97.276 81.2587 100.152 80.4111 102.257 79.8017C102.761 79.6588 103.228 79.5159 103.638 79.3921C109.914 77.4684 114.066 74.5352 115.97 70.6687C116.866 68.8498 117.056 67.4689 117.047 66.1166C117.285 67.1451 117.523 68.2784 117.523 70.364C117.523 76.4113 113.99 79.0969 110.161 81.0873C108.066 82.1825 105.904 82.592 103.619 83.0205C101.381 83.4491 99.0569 83.8872 96.8475 85.03C94.6285 86.1823 93.2286 87.6679 92.7048 89.4679C92.2096 91.144 92.4762 93.0867 93.4857 95.2676C93.4381 95.2485 93.4 95.239 93.3619 95.22Z" fill="url(#paint5_linear_2_185)"/>
<path d="M53.5352 109.676C56.5351 106.8 63.5824 99.6102 66.268 91.7154C72.5915 73.0591 75.2675 70.0688 79.3245 65.5261L79.3911 65.4499C83.9338 60.1454 89.2002 56.8694 94.6476 55.3361C89.8668 58.9264 86.7337 65.2499 83.9909 72.7448C81.2672 80.2111 78.1722 88.6869 71.7153 97.5151C67.6393 103.086 60.6111 107.648 53.5352 109.676Z" fill="url(#paint6_linear_2_185)"/>
<path d="M67.5822 61.7358L61.6015 61.6311L43.5738 61.3168L42.3929 61.2882H42.2215L40.2787 61.2501L39.2883 61.2406L38.1264 61.2216L36.8312 61.193H36.3646L35.1266 61.1644L33.9742 61.1454L20.1653 60.8978L16.2703 60.8311C17.4321 54.6123 20.1653 51.8696 23.1938 50.3554C25.7937 49.0507 28.6126 48.6507 30.822 47.7365C31.1267 47.6222 31.4124 47.4889 31.6886 47.3365C32.0886 47.127 32.46 46.8889 32.8029 46.6127C32.9171 46.5175 33.0314 46.4127 33.1457 46.2984H33.1552C33.1552 46.2889 33.1647 46.2794 33.1647 46.2794C34.1552 45.308 34.7837 43.9081 34.8504 41.7368L46.0308 41.1463C45.8975 43.67 46.726 45.2413 48.1259 46.327C48.1926 46.3842 48.2593 46.4318 48.3259 46.4794C48.4878 46.5937 48.6593 46.7079 48.8307 46.8127C49.2592 47.0603 49.7163 47.2889 50.2116 47.4984C50.5068 47.6127 50.802 47.7269 51.1163 47.8317C51.3734 47.9269 51.6401 48.0126 51.9162 48.0888C51.9543 48.1079 51.9924 48.1174 52.0305 48.1269C52.1734 48.1745 52.3162 48.2126 52.4591 48.2603C52.5353 48.2793 52.6114 48.2983 52.6972 48.3174C54.2399 48.7555 55.9065 49.1269 57.5541 49.6316C57.7922 49.7078 58.0493 49.7935 58.3255 49.8887C58.9159 50.0792 59.5064 50.3078 60.0873 50.5554C60.2873 50.6506 60.4682 50.7268 60.6301 50.803C60.6873 50.822 60.7444 50.8506 60.8015 50.8792C64.268 52.5743 67.106 55.5171 67.5822 61.7358Z" fill="#039BE5"/>
<path opacity="0.35" d="M51.2877 79.4303C50.802 80.135 50.2211 80.354 49.7068 80.3826C49.1068 80.4112 48.6021 80.1636 48.4878 80.0969C48.4783 80.0969 48.4783 80.0874 48.4688 80.0874C48.4688 80.0874 37.2503 73.0782 39.2883 61.2406C40.0311 56.8885 42.5738 51.8792 48.1259 46.3271C48.1926 46.3842 48.2593 46.4318 48.3259 46.4794C48.4878 46.5937 48.6592 46.708 48.8307 46.8127C49.2592 47.0604 49.7163 47.2889 50.2116 47.4984C49.9449 47.8222 49.2973 48.5841 48.5164 49.5936C45.5165 53.3934 43.1262 57.2504 42.3929 61.2883C42.0976 62.8977 42.0691 64.5357 42.3738 66.2214C43.3547 71.5735 46.9736 75.259 49.0973 77.5637C49.9925 78.4494 51.2877 79.4112 51.2877 79.4303Z" fill="#212121"/>
<path d="M60.5349 66.2975C59.8968 67.6594 58.9825 69.0307 58.0588 70.3545C57.8969 70.5831 57.7445 70.8116 57.5826 71.0402L57.2779 71.4783C56.0684 73.202 53.7161 76.7066 52.0972 79.1255L50.9067 80.8969L50.6687 81.2492C50.4306 81.0492 50.1068 80.754 49.7068 80.3826C47.4402 78.1922 43.0214 73.1067 42.2024 66.0214C42.2024 66.0118 42.2024 66.0118 42.2024 66.0023C42.05 64.6976 42.031 63.3929 42.1452 62.0692C42.1643 61.812 42.2024 61.5549 42.2214 61.2883C42.7262 54.8505 44.9737 51.6601 48.8306 46.8127C49.2592 47.0604 49.7163 47.2889 50.2115 47.4984C50.5068 47.6127 50.802 47.727 51.1162 47.8317C51.3734 47.927 55.9065 49.1269 57.554 49.6317C57.7921 49.7078 60.7444 50.8507 60.792 50.8697L60.8015 50.8792C64.1823 59.1265 60.6872 65.9738 60.5349 66.2975Z" fill="url(#paint7_linear_2_185)"/>
<path d="M52.0972 79.1255L50.9068 80.8969L50.6687 81.2492L50.383 81.6683C49.983 81.373 49.3068 80.8397 48.4878 80.0969C48.4783 80.0969 48.4783 80.0874 48.4688 80.0874C45.0404 76.9828 39.1359 70.2212 40.2787 61.2502C40.8501 56.8028 43.1452 51.8316 48.3259 46.4794C48.4878 46.5937 48.6592 46.708 48.8307 46.8127C49.2592 47.0604 49.7163 47.2889 50.2116 47.4984C50.5068 47.6127 50.802 47.727 51.1163 47.8317C50.7925 48.2222 50.2877 48.8412 49.6973 49.5936C46.6974 53.4029 44.2975 57.2694 43.5738 61.3168C43.2785 62.9168 43.25 64.5452 43.5547 66.2214C44.5356 71.5735 48.1545 75.259 50.2782 77.5637C50.8782 78.1541 51.6496 78.7732 52.0972 79.1255Z" fill="#FCB316"/>
<path opacity="0.35" d="M38.1264 61.2216C38.0121 62.3454 37.755 63.5739 37.2979 64.9167C35.5075 70.1259 32.4695 78.8113 16.8036 79.0017C16.8131 78.916 16.8322 78.8398 16.8417 78.7636C16.8703 78.6017 16.8988 78.4398 16.9274 78.2875C17.0226 77.7827 17.1083 77.3161 17.2036 76.8685C17.6036 76.4114 18.1845 76.04 19.0035 75.9733C29.4697 74.8781 32.7266 69.4974 34.3551 64.7357C34.7837 63.4882 35.0218 62.2977 35.1265 61.1645C35.2122 60.3359 35.2218 59.536 35.1742 58.7931C35.098 57.3361 34.8218 56.0695 34.517 55.0505C34.4599 54.8505 34.3837 54.5648 34.2885 54.2219C33.7361 52.1744 32.9838 50.0412 32.6886 49.4126C32.3552 48.7079 31.9457 47.8698 31.6886 47.3365C32.0886 47.127 32.46 46.8889 32.8028 46.6128C32.9171 46.5175 33.0314 46.4128 33.1457 46.2985H33.1552C33.1647 46.308 33.1838 46.3175 33.1933 46.3366C35.517 48.3174 36.8407 52.8696 37.2502 54.2315C37.6026 55.4124 38.0026 56.8028 38.1454 58.4598C38.2216 59.3074 38.2311 60.2217 38.1264 61.2216Z" fill="#212121"/>
<path d="M36.3646 61.193C36.336 61.4597 36.2979 61.7358 36.2694 62.012C35.9646 64.7547 34.8313 67.088 34.4028 67.9832C32.1838 72.6115 27.7269 77.5065 16.9274 78.2874C15.937 78.3636 14.8989 78.4017 13.7942 78.4017C13.6799 78.3922 13.5561 78.3922 13.4419 78.3922C13.9276 77.7732 14.518 76.8875 15.137 75.8209H15.1465C16.137 74.1162 17.2322 71.9449 18.0988 69.7069C18.7845 67.9355 19.3368 66.1071 19.594 64.4405L19.613 64.3071L19.6416 64.1548C19.813 63.0501 19.9749 61.9644 20.1654 60.8978C20.651 58.0503 22.9557 50.9078 23.1938 50.3554C25.7937 49.0507 28.6126 48.6507 30.822 47.7365C31.1267 47.6222 31.4124 47.4889 31.6886 47.3365C32.0886 47.127 32.46 46.8889 32.8029 46.6127C34.1552 48.6412 36.917 55.8885 36.3646 61.193Z" fill="url(#paint8_linear_2_185)"/>
<path d="M36.8312 61.193C36.717 62.5358 36.4313 63.9834 35.917 65.4976C34.2409 70.4116 30.4696 77.8113 16.8417 78.7636C15.8798 78.8303 14.8608 78.8684 13.7942 78.8684C13.5181 78.8684 13.2514 78.8684 12.9752 78.8589C13.1562 78.6589 14.518 76.9256 15.137 75.8209H15.1465C15.6703 75.8209 16.5179 75.9257 17.8607 75.8114C28.3269 74.7162 31.5839 69.3355 33.2124 64.5738C33.6219 63.3834 33.86 62.2311 33.9742 61.1454C34.2409 58.6408 33.8504 56.4599 33.3743 54.8886C33.3171 54.6886 33.2409 54.4029 33.1457 54.06C32.5933 52.0125 31.841 49.8793 31.5458 49.2507C31.3172 48.765 31.0506 48.2127 30.822 47.7365C31.1267 47.6222 31.4124 47.4889 31.6886 47.3365C32.0886 47.127 32.46 46.8889 32.8029 46.6128C32.9171 46.5175 33.0314 46.4128 33.1457 46.2985H33.1552C33.1552 46.289 33.1647 46.2794 33.1647 46.2794L33.1933 46.3366C34.8504 48.8031 35.7646 52.9172 36.1075 54.06C36.6122 55.7552 37.1169 58.2408 36.8312 61.193Z" fill="#FCB316"/>
<path opacity="0.35" d="M60.5349 66.2975C59.8968 67.6594 58.9826 69.0307 58.0588 70.3545C52.3924 70.2688 46.3736 68.5165 42.8214 66.288L42.2024 66.0214L41.2596 65.6119C39.6978 66.1356 37.2598 67.088 34.4028 67.9832C29.4506 69.5355 23.2224 70.9259 18.0988 69.7069C18.7845 67.9356 19.3368 66.1071 19.594 64.4405L19.613 64.3072C21.87 62.6406 31.6029 61.9739 32.0029 61.9739C32.1267 61.9739 33.8409 61.993 36.2694 62.012C37.974 62.0311 40.0311 62.0501 42.1453 62.0692C47.9926 62.1263 60.6873 65.9738 60.5349 66.2975Z" fill="#212121"/>
<path d="M66.7155 57.117C67.0774 57.5456 69.2488 59.574 69.2297 61.6501C69.2107 63.3548 68.5059 65.5261 66.1346 66.6785C59.8587 69.745 48.1831 67.2975 42.8309 63.9167C36.1741 59.7264 31.6505 57.2599 31.6505 57.2599C25.8032 58.4979 20.9367 55.6028 20.9367 55.6028C20.9367 55.6028 14.5847 56.8218 13.5276 56.7932C11.861 56.7551 11.4515 54.5076 12.8324 54.0314C15.556 53.0886 22.07 49.2507 24.6032 49.3936C25.9841 49.4698 39.9644 52.1553 43.9833 53.2981C45.2785 53.6696 53.059 55.06 53.059 55.06" fill="#4FC3F7"/>
<path d="M44.2595 53.3743C44.2595 53.3743 56.4589 49.3364 59.2111 49.9459C66.087 51.4697 69.363 56.8504 69.4678 57.8313C69.0869 58.9836 66.6203 59.7264 64.1823 59.1265C60.9253 58.3265 57.2398 55.9361 53.04 55.06C53.04 55.06 44.4499 53.5458 44.2595 53.3743Z" fill="#4FC3F7"/>
<path d="M69.4678 57.8313C69.363 58.4122 68.8488 58.8693 68.3345 59.1645C67.8107 59.4693 67.2298 59.6502 66.6394 59.774C65.4489 59.9835 64.2014 59.9454 62.9919 59.5074C61.7634 59.0979 60.8015 58.2408 59.9444 57.5551C59.0969 56.8313 58.3445 56.3266 57.535 56.298L57.2112 56.2885H56.7732C56.4779 56.2885 56.1732 56.298 55.8875 56.2885C55.297 56.2694 54.7161 56.2409 54.1352 56.1742C52.9829 56.0218 51.8496 55.8599 50.7353 55.5933C48.5069 55.0695 46.2975 54.4409 44.2595 53.3648C46.5165 53.6696 48.7545 53.8886 50.9734 54.1267C52.0877 54.2124 53.1828 54.3362 54.2876 54.3743C54.8304 54.3933 55.3827 54.4314 55.9161 54.4219C56.1922 54.4314 56.4494 54.4124 56.716 54.4029L57.1255 54.3933H57.6588C58.3731 54.4505 59.0873 54.6981 59.6587 55.0504C60.2397 55.4028 60.7158 55.8028 61.1349 56.1932C61.9634 56.9932 62.6967 57.6789 63.5824 58.136C64.449 58.5741 65.5156 58.8217 66.5632 58.8407C67.0965 58.8598 67.6298 58.8026 68.1441 58.6788C68.6297 58.536 69.1726 58.3265 69.4678 57.8313Z" fill="#0277BD"/>
<path d="M41.631 63.1739C40.2406 64.2024 27.0984 69.2307 18.0988 67.2118C16.0132 66.7451 13.1943 66.1642 12.5371 63.6977C11.7372 60.6692 15.3084 56.6123 15.3084 56.6123L20.9272 55.6219L24.2699 56.8789C25.2794 57.2599 26.346 57.4313 27.4222 57.4027L31.641 57.2694C31.641 57.2599 42.1262 63.1739 41.631 63.1739Z" fill="#4FC3F7"/>
<path d="M66.1251 66.6785C63.3919 68.2308 60.1063 68.6403 56.9731 68.5832C53.8114 68.5165 50.6687 67.9832 47.6307 67.0404C46.1165 66.5547 44.6118 65.9833 43.1833 65.2024C42.45 64.8024 41.8024 64.3929 41.1453 63.9834L39.1645 62.7834C36.5455 61.1549 33.8695 59.5741 31.222 58.0218L31.8124 58.1075C30.8506 58.2694 29.8792 58.3932 28.9078 58.3741C27.9364 58.3646 26.9745 58.2598 26.0317 58.0789C25.0889 57.8979 24.1556 57.6503 23.27 57.298C22.3748 56.9551 21.5272 56.5647 20.6796 56.0409L21.0224 56.098C19.7749 56.2695 18.5368 56.4218 17.2798 56.5647L15.4037 56.7456C14.7751 56.7837 14.1466 56.8409 13.518 56.8028C14.1371 56.7361 14.7465 56.5742 15.356 56.4409L17.1845 56.0123L20.832 55.1362L20.9844 55.0981L21.1843 55.1933C21.9462 55.5743 22.8128 55.8885 23.6604 56.1266C24.5175 56.3647 25.3841 56.5552 26.2603 56.6599C27.1364 56.7742 28.0126 56.8123 28.8887 56.7647C29.7649 56.7551 30.622 56.6028 31.4696 56.4314L31.7743 56.3742L32.06 56.5171C34.8408 57.9646 37.5074 59.555 40.1739 61.1549L42.1548 62.393C42.8119 62.812 43.469 63.231 44.0976 63.5834C45.3927 64.2881 46.7736 64.8976 48.1926 65.4119C49.6211 65.9071 51.0782 66.3261 52.5638 66.6785C54.0495 67.0023 55.5542 67.2785 57.0684 67.4404C60.0682 67.7356 63.1824 67.7356 66.1251 66.6785Z" fill="#0277BD"/>
<path d="M26.4603 35.0228C25.4508 34.8038 23.6795 34.2515 22.451 32.9658C20.2034 30.5945 19.5178 25.8328 19.3463 24.0995C20.5939 24.2138 23.4223 24.6519 24.8794 26.3756L26.4603 35.0228Z" fill="#039BE5"/>
<path d="M23.8319 32.88C23.6985 34.4419 22.9176 35.7466 21.7367 35.7656C20.5558 35.7942 19.5749 34.5276 19.5463 32.9562C19.5273 31.7658 20.0511 30.7373 20.8225 30.2992L21.2701 31.223C20.8796 31.4896 20.5463 32.1277 20.5653 32.9467C20.5844 34.0324 21.1844 34.7752 21.7177 34.7657C22.251 34.7562 22.8224 33.9943 22.8129 32.9086C22.8033 32.0134 22.6795 31.7372 22.451 31.242C22.0796 30.404 22.6986 29.7564 23.289 30.5754C23.289 30.5754 23.9557 31.3754 23.8319 32.88Z" fill="#FCB316"/>
<path d="M55.4875 26.3756C56.9446 24.6424 59.773 24.2138 61.0206 24.0995C60.8491 25.8328 60.1635 30.5945 57.916 32.9658C56.6874 34.261 54.9161 34.8133 53.9066 35.0228L55.4875 26.3756Z" fill="#039BE5"/>
<path d="M38.7264 45.9366L39.8882 46.0128H41.431C50.0116 45.4414 55.7541 37.4989 55.9351 24.928C56.116 12.4239 48.4116 6.1194 40.4787 6.00512C32.5457 5.89084 24.6508 11.9572 24.4699 24.4614C24.2794 37.0513 30.5839 45.2795 38.7264 45.9366Z" fill="#4FC3F7"/>
<path d="M41.9929 32.661C41.9453 32.642 41.8977 32.6325 41.8501 32.6229L38.5931 32.5753C38.5455 32.5848 38.4978 32.5944 38.4407 32.6134C38.1455 32.7277 37.9741 33.0324 38.1074 33.3562C38.2407 33.68 38.8788 34.6038 40.1835 34.6228C41.4882 34.6419 42.1548 33.7372 42.2977 33.4134C42.4405 33.0896 42.2786 32.7848 41.9929 32.661Z" fill="#0277BD"/>
<path d="M44.088 36.4132C42.6119 37.2608 37.8026 37.1941 36.3551 36.2989C35.517 35.7847 34.6504 36.537 34.9837 37.3084C35.317 38.0607 37.9169 39.8511 40.1835 39.8797C42.45 39.9083 45.0689 38.2036 45.4213 37.4608C45.7737 36.6989 44.9356 35.9275 44.088 36.4132Z" fill="#4E342E"/>
<path d="M57.0779 30.5754C57.6684 29.7564 58.2874 30.404 57.916 31.242C57.6874 31.7372 57.5636 32.0134 57.5541 32.9086C57.5446 33.9943 58.116 34.7562 58.6493 34.7657C59.1826 34.7752 59.7825 34.0324 59.8016 32.9467C59.8206 32.1277 59.4873 31.4896 59.0969 31.223L59.5445 30.2992C60.3159 30.7373 60.8396 31.7658 60.8206 32.9562C60.792 34.5276 59.8111 35.7942 58.6302 35.7656C57.4493 35.7466 56.6684 34.4419 56.5351 32.88C56.4113 31.3754 57.0779 30.5754 57.0779 30.5754Z" fill="#FCB316"/>
<path d="M32.641 30.5564C33.8927 30.5564 34.9075 29.5416 34.9075 28.2898C34.9075 27.038 33.8927 26.0233 32.641 26.0233C31.3892 26.0233 30.3744 27.038 30.3744 28.2898C30.3744 29.5416 31.3892 30.5564 32.641 30.5564Z" fill="#212121"/>
<path d="M47.7641 30.5564C49.0158 30.5564 50.0306 29.5416 50.0306 28.2898C50.0306 27.038 49.0158 26.0233 47.7641 26.0233C46.5123 26.0233 45.4975 27.038 45.4975 28.2898C45.4975 29.5416 46.5123 30.5564 47.7641 30.5564Z" fill="#212121"/>
<path d="M117.351 104.448C112.037 103.601 112.494 101.972 111.99 100.458L106.914 98.9722C105.752 99.9721 104.647 102.048 100.276 99.915C98.9331 99.2579 94.4 95.42 94.4 95.42L90.9811 94.5533C91.4192 94.9533 95.1428 99.7436 98.3141 103.753C102.276 108.772 104.647 109.705 106.39 110.21C108.999 110.972 112.028 110.591 112.028 110.591C112.028 110.591 117.113 111.143 120.599 109.867C124.218 108.543 125.865 105.2 125.865 105.2C125.865 105.2 119.751 104.677 117.351 104.448ZM120.027 108.315C118.713 108.791 117.113 108.981 115.704 109.038C116.923 108.153 117.732 107.077 118.237 106.2C119.208 106.286 120.627 106.419 122.722 106.6C122.037 107.258 121.142 107.915 120.027 108.315Z" fill="url(#paint9_linear_2_185)"/>
<path d="M122.722 106.61C122.037 107.267 121.142 107.915 120.027 108.324C118.713 108.8 117.113 108.991 115.704 109.048C116.732 108.296 117.732 106.991 118.237 106.21C115.38 106.362 111.694 106.077 107.961 104.981C100.952 102.924 95.0285 96.4771 94.019 95.3247L90.9811 94.5533C91.4192 94.9533 95.1428 99.7436 98.3141 103.753C100.99 107.134 102.933 108.657 104.457 109.448C101.209 109.343 99.2759 111.324 99.2759 111.324L111.818 115C111.818 115 111.256 112.267 108.428 110.6C110.361 110.81 112.028 110.6 112.028 110.6C112.028 110.6 117.113 111.153 120.599 109.876C124.218 108.553 125.865 105.21 125.865 105.21L122.722 106.61Z" fill="url(#paint10_radial_2_185)"/>
<path d="M109.828 96.2294L106.714 99.2007L112.094 100.782L110.666 96.5151L111.771 95.6104C112.085 95.3533 112.247 94.9628 112.209 94.5629L112.009 92.2582C111.971 91.8011 111.399 91.6106 111.094 91.963L109.561 93.7248C109.266 94.0581 109.18 94.5343 109.342 94.9533L109.828 96.2294Z" fill="url(#paint11_radial_2_185)"/>
<path d="M111.447 113.991L100.162 110.676L101.571 109.934L110.628 112.591L111.447 113.991Z" fill="url(#paint12_radial_2_185)"/>
<path d="M35.9836 24.6709C35.6979 24.9566 35.2218 24.7661 34.8408 24.5757C33.8885 24.1947 33.1266 23.909 32.0791 23.8138C31.3172 23.8138 30.1744 23.909 29.3173 24.1947C28.5554 24.3852 29.0316 23.2424 29.9839 22.5758C30.6506 22.0996 31.3172 21.9091 32.7457 21.9091C33.9837 21.9091 35.317 22.3853 35.9836 22.8615C36.4598 23.4329 36.4598 24.29 35.9836 24.6709Z" fill="#01579B"/>
<path d="M44.4595 24.6709C44.7452 24.9566 45.2213 24.7661 45.6023 24.5757C46.5546 24.1947 47.3165 23.909 48.364 23.8138C49.1259 23.8138 50.2687 23.909 51.1258 24.1947C51.8877 24.3852 51.4115 23.2424 50.4592 22.5758C49.7925 22.0996 49.1259 21.9091 47.6974 21.9091C46.4594 21.9091 45.1261 22.3853 44.4595 22.8615C43.9833 23.4329 43.9833 24.29 44.4595 24.6709Z" fill="#01579B"/>
<g clip-path="url(#clip0_2_185)">
<path d="M16 85H8V141C8 145.4 11.6 149 16 149H72V141H16V85ZM80 69H32C27.6 69 24 72.6 24 77V125C24 129.4 27.6 133 32 133H80C84.4 133 88 129.4 88 125V77C88 72.6 84.4 69 80 69ZM76 105H36V97H76V105ZM60 121H36V113H60V121ZM76 89H36V81H76V89Z" fill="#FF8F00"/>
</g>
<defs>
<radialGradient id="paint0_radial_2_185" cx="0" cy="0" r="1" gradientUnits="userSpaceOnUse" gradientTransform="translate(46.8326 6.5121) scale(12.4884 8.23982)">
<stop offset="0.6107" stop-color="#00838F" stop-opacity="0"/>
<stop offset="1" stop-color="#00838F"/>
</radialGradient>
<radialGradient id="paint1_radial_2_185" cx="0" cy="0" r="1" gradientUnits="userSpaceOnUse" gradientTransform="translate(47.3776 7.87878) rotate(31.0257) scale(7.8992 7.58313)">
<stop offset="0.6107" stop-color="#00838F" stop-opacity="0"/>
<stop offset="1" stop-color="#00838F"/>
</radialGradient>
<radialGradient id="paint2_radial_2_185" cx="0" cy="0" r="1" gradientUnits="userSpaceOnUse" gradientTransform="translate(43.5258 5.01678) rotate(1.01423) scale(5.65149 5.55087)">
<stop stop-color="#FFEB3B"/>
<stop offset="1" stop-color="#FBAA19"/>
</radialGradient>
<radialGradient id="paint3_radial_2_185" cx="0" cy="0" r="1" gradientUnits="userSpaceOnUse" gradientTransform="translate(38.0313 103.913) scale(58.3135)">
<stop stop-color="#29B6F6"/>
<stop offset="1" stop-color="#0277BD"/>
</radialGradient>
<linearGradient id="paint4_linear_2_185" x1="52.2558" y1="74.2999" x2="28.1255" y2="100.683" gradientUnits="userSpaceOnUse">
<stop stop-color="#005584" stop-opacity="0"/>
<stop offset="0.8412" stop-color="#005584"/>
</linearGradient>
<linearGradient id="paint5_linear_2_185" x1="90.9196" y1="80.6936" x2="117.523" y2="80.6936" gradientUnits="userSpaceOnUse">
<stop stop-color="#54CCBE"/>
<stop offset="0.2344" stop-color="#45CABA"/>
<stop offset="0.6806" stop-color="#1FC4AE"/>
<stop offset="1" stop-color="#00BFA5"/>
</linearGradient>
<linearGradient id="paint6_linear_2_185" x1="66.905" y1="101.312" x2="80.5232" y2="65.6684" gradientUnits="userSpaceOnUse">
<stop stop-color="#00AB94"/>
<stop offset="0.7061" stop-color="#00BFA5"/>
</linearGradient>
<linearGradient id="paint7_linear_2_185" x1="42.0718" y1="64.031" x2="62.2698" y2="64.031" gradientUnits="userSpaceOnUse">
<stop offset="0.0956" stop-color="#00AB94"/>
<stop offset="0.4488" stop-color="#00BFA5"/>
</linearGradient>
<linearGradient id="paint8_linear_2_185" x1="36.3642" y1="62.5072" x2="13.3701" y2="62.5072" gradientUnits="userSpaceOnUse">
<stop offset="0.0956" stop-color="#00AB94"/>
<stop offset="0.4474" stop-color="#00BFA5"/>
</linearGradient>
<linearGradient id="paint9_linear_2_185" x1="107.688" y1="102.04" x2="103.888" y2="113.22" gradientUnits="userSpaceOnUse">
<stop stop-color="#00AB94"/>
<stop offset="0.5785" stop-color="#00BFA5"/>
</linearGradient>
<radialGradient id="paint10_radial_2_185" cx="0" cy="0" r="1" gradientUnits="userSpaceOnUse" gradientTransform="translate(111.043 105.154) rotate(-13.4498) scale(8.28478 7.74646)">
<stop offset="0.2716" stop-color="#FEBC12"/>
<stop offset="0.4999" stop-color="#FEA709"/>
<stop offset="0.809" stop-color="#FF9000"/>
</radialGradient>
<radialGradient id="paint11_radial_2_185" cx="0" cy="0" r="1" gradientUnits="userSpaceOnUse" gradientTransform="translate(111.457 93.2016) rotate(16.3326) scale(3.59461 3.59461)">
<stop stop-color="#FEBC12"/>
<stop offset="1" stop-color="#FF8F00"/>
</radialGradient>
<radialGradient id="paint12_radial_2_185" cx="0" cy="0" r="1" gradientUnits="userSpaceOnUse" gradientTransform="translate(105.962 111.795) rotate(16.3326) scale(4.17665 4.17665)">
<stop stop-color="#FEF59F"/>
<stop offset="0.9044" stop-color="#FAC537"/>
<stop offset="1" stop-color="#F9BF2C"/>
</radialGradient>
<clipPath id="clip0_2_185">
<rect width="96" height="96" fill="white" transform="translate(0 61)"/>
</clipPath>
</defs>
</svg>
