<svg width="234" height="90" viewBox="0 0 234 90" fill="none" xmlns="http://www.w3.org/2000/svg">
<path d="M33.5498 2.34563C33.5498 2.34563 32.896 3.27175 31.6431 3.27175C30.9348 3.27175 30.0087 2.94488 28.9192 2.07324C27.8296 1.14712 27.3611 0.667723 26.0319 0.221007C24.8497 -0.176679 23.2808 -0.0622763 22.3819 0.765782C20.4752 2.72697 21.2923 4.57921 21.4558 5.06951C21.4558 5.06951 23.3625 7.57547 28.3199 7.57547C29.355 7.57547 30.3901 7.41204 31.3162 6.92174C34.4214 5.23294 33.5498 2.34563 33.5498 2.34563Z" fill="#2D2D2D"/>
<path d="M33.5498 2.34563C33.5498 2.34563 32.896 3.27175 31.6431 3.27175C30.9348 3.27175 30.0087 2.94488 28.9192 2.07324C27.8296 1.14712 27.3611 0.667723 26.0319 0.221007C24.8497 -0.176679 23.2808 -0.0622763 22.3819 0.765782C20.4752 2.72697 21.2923 4.57921 21.4558 5.06951C21.4558 5.06951 23.3625 7.57547 28.3199 7.57547C29.355 7.57547 30.3901 7.41204 31.3162 6.92174C34.4214 5.23294 33.5498 2.34563 33.5498 2.34563Z" fill="#0F3B7C"/>
<path d="M33.5498 2.34564C33.5498 2.34564 32.8961 3.27176 31.6431 3.27176C30.9349 3.27176 21.2924 4.57922 21.4558 5.06952C21.4558 5.06952 23.3625 7.57548 28.32 7.57548C29.355 7.57548 30.3901 7.41205 31.3162 6.92175C34.4214 5.23295 33.5498 2.34564 33.5498 2.34564Z" fill="url(#paint0_radial_2_276)"/>
<path d="M28.9192 2.07324C27.8296 1.14712 27.3611 0.667723 26.0319 0.221007C24.8497 -0.176679 23.2808 -0.0622763 22.3819 0.765782C20.4752 2.72697 21.2923 4.57921 21.4558 5.06951C21.4558 5.06951 30.0087 2.94488 28.9192 2.07324Z" fill="url(#paint1_radial_2_276)"/>
<path d="M23.2535 1.41952H23.4714C24.6699 1.41952 25.596 2.40012 25.5415 3.59863V3.81654C25.5415 5.01504 24.5609 5.94116 23.3624 5.88668H23.1445C21.946 5.88668 21.0199 4.90609 21.0199 3.70758V3.48967C21.0744 2.34564 22.055 1.36505 23.2535 1.41952Z" fill="url(#paint2_radial_2_276)"/>
<path d="M24.0162 3.6531C24.3772 3.6531 24.6699 3.36042 24.6699 2.99937C24.6699 2.63833 24.3772 2.34564 24.0162 2.34564C23.6551 2.34564 23.3624 2.63833 23.3624 2.99937C23.3624 3.36042 23.6551 3.6531 24.0162 3.6531Z" fill="white"/>
<path d="M64.3677 45.3992C63.4906 46.0366 56.9315 47.1371 61.0173 44.8327C63.7031 43.3182 65.0868 38.2899 59.0126 36.77C52.7967 35.2283 46.1559 46.0693 45.208 48.341C42.958 53.7288 39.8419 58.2559 33.4517 61.5082C27.737 64.4228 22.4037 64.6952 15.7302 61.4646C10.2933 58.8334 8.56094 53.8596 9.30728 47.3659C9.39989 46.5432 9.5034 45.8241 9.61235 45.1922C9.68862 44.7455 9.76489 44.3424 9.84116 43.9719C10.5984 40.2947 11.3393 39.7935 10.1898 34.738L20.1211 33.6321L21.8208 33.4414L35.7725 31.8833C35.7725 35.5442 35.353 38.3226 30.0305 43.4762C27.9168 45.5245 24.2886 47.2678 23.5477 49.9535C23.3026 50.8524 23.1391 51.8112 23.9399 53.0043C24.8552 54.3771 31.3162 57.6403 37.4449 48.9403C38.0714 48.0523 41.5416 42.7843 42.4841 41.3624C44.8048 37.8595 47.3326 34.7707 51.2005 32.8422C64.8199 26.0434 71.3136 40.3492 64.3677 45.3992Z" fill="url(#paint3_radial_2_276)"/>
<path d="M24.3921 41.2589C22.4963 43.0131 20.2736 44.3696 18.198 45.9113C16.1224 47.453 14.1395 49.2399 12.9845 51.5497C11.8296 53.8596 11.6444 56.7959 13.0663 58.9532C13.6982 59.912 15.5177 61.9113 20.2137 63.1698C20.2137 63.1698 12.881 59.5961 17.0758 53.5817C18.4051 51.675 23.8746 48.4881 25.6397 46.9791C27.4047 45.47 27.0125 46.0856 28.625 44.4132C30.4609 42.5119 32.8089 39.69 33.7623 37.2276C34.4323 35.4952 35.3802 32.6678 32.4494 32.6678C29.5185 32.6678 26.07 39.7118 24.3921 41.2589Z" fill="url(#paint4_linear_2_276)"/>
<path d="M53.4068 54.4697C53.0744 54.3608 52.6931 54.2409 52.595 54.0448C51.3094 51.4353 52.1919 48.548 54.7469 47.0172C55.6458 46.4833 57.291 45.9985 58.495 45.6498C58.7837 45.5681 59.0506 45.4864 59.2849 45.4155C62.8749 44.3151 65.2502 42.6372 66.3397 40.4254C66.8518 39.3849 66.9608 38.595 66.9553 37.8214C67.0915 38.4097 67.2277 39.058 67.2277 40.2511C67.2277 43.7104 65.2066 45.2467 63.0166 46.3852C61.8181 47.0117 60.5814 47.246 59.274 47.4911C57.9938 47.7363 56.6645 47.9869 55.4006 48.6406C54.1313 49.2998 53.3305 50.1496 53.0309 51.1793C52.7476 52.1381 52.9001 53.2494 53.4776 54.4969C53.4503 54.4861 53.4285 54.4806 53.4068 54.4697Z" fill="url(#paint5_linear_2_276)"/>
<path d="M30.6243 62.7394C32.3403 61.0942 36.3716 56.9811 37.9079 52.4649C41.5252 41.7928 43.056 40.0822 45.3768 37.4836L45.4149 37.44C48.0135 34.4056 51.0261 32.5316 54.1422 31.6545C51.4074 33.7083 49.6151 37.3256 48.0462 41.613C46.4881 45.8841 44.7176 50.7326 41.024 55.7826C38.6924 58.9696 34.6719 61.579 30.6243 62.7394Z" fill="url(#paint6_linear_2_276)"/>
<path d="M38.6597 35.3154L35.2386 35.2555L24.926 35.0757L24.2504 35.0594H24.1524L23.041 35.0376L22.4745 35.0321L21.8098 35.0212L21.0689 35.0049H20.802L20.0938 34.9885L19.4346 34.9776L11.5354 34.836L9.30725 34.7979C9.97188 31.2405 11.5354 29.6715 13.2678 28.8053C14.755 28.059 16.3675 27.8302 17.6314 27.3072C17.8057 27.2418 17.9692 27.1656 18.1272 27.0784C18.356 26.9586 18.5684 26.8224 18.7645 26.6644C18.8299 26.6099 18.8953 26.55 18.9607 26.4846H18.9661C18.9661 26.4792 18.9716 26.4737 18.9716 26.4737C19.5381 25.918 19.8977 25.1172 19.9358 23.8751L26.3315 23.5374C26.2552 24.981 26.7292 25.8799 27.53 26.5009C27.5681 26.5336 27.6062 26.5609 27.6444 26.5881C27.737 26.6535 27.8351 26.7189 27.9331 26.7788C28.1783 26.9204 28.4398 27.0512 28.723 27.171C28.8919 27.2364 29.0608 27.3018 29.2406 27.3617C29.3877 27.4162 29.5402 27.4652 29.6982 27.5088C29.72 27.5197 29.7418 27.5251 29.7636 27.5306C29.8453 27.5578 29.927 27.5796 30.0087 27.6068C30.0523 27.6177 30.0959 27.6286 30.1449 27.6395C31.0274 27.8901 31.9808 28.1026 32.9233 28.3913C33.0595 28.4349 33.2065 28.4839 33.3645 28.5384C33.7023 28.6474 34.04 28.7781 34.3724 28.9197C34.4868 28.9742 34.5903 29.0178 34.6829 29.0614C34.7156 29.0723 34.7483 29.0886 34.7809 29.105C36.7639 30.0747 38.3874 31.758 38.6597 35.3154Z" fill="#039BE5"/>
<path opacity="0.35" d="M29.3386 45.4374C29.0608 45.8405 28.7285 45.9658 28.4343 45.9821C28.0911 45.9985 27.8024 45.8568 27.737 45.8187C27.7315 45.8187 27.7315 45.8132 27.7261 45.8132C27.7261 45.8132 21.3086 41.8037 22.4745 35.0321C22.8994 32.5425 24.3539 29.677 27.53 26.501C27.5681 26.5337 27.6062 26.5609 27.6444 26.5881C27.737 26.6535 27.835 26.7189 27.9331 26.7788C28.1783 26.9204 28.4397 27.0512 28.723 27.171C28.5705 27.3563 28.2 27.7921 27.7533 28.3695C26.0373 30.5432 24.6699 32.7495 24.2504 35.0594C24.0815 35.9801 24.0652 36.9171 24.2395 37.8813C24.8006 40.943 26.8708 43.0512 28.0856 44.3696C28.5977 44.8762 29.3386 45.4265 29.3386 45.4374Z" fill="#212121"/>
<path d="M34.6284 37.9249C34.2634 38.7039 33.7404 39.4884 33.212 40.2456C33.1194 40.3764 33.0322 40.5071 32.9396 40.6379L32.7653 40.8885C32.0734 41.8745 30.7278 43.8793 29.8017 45.263L29.1207 46.2763L28.9845 46.4779C28.8483 46.3635 28.6631 46.1946 28.4343 45.9821C27.1377 44.7291 24.61 41.82 24.1415 37.7669C24.1415 37.7615 24.1415 37.7615 24.1415 37.756C24.0543 37.0097 24.0434 36.2633 24.1088 35.5061C24.1197 35.359 24.1415 35.2119 24.1524 35.0594C24.4411 31.3767 25.7268 29.5517 27.9331 26.7788C28.1783 26.9204 28.4398 27.0512 28.723 27.171C28.8919 27.2364 29.0608 27.3018 29.2406 27.3617C29.3877 27.4162 31.9808 28.1026 32.9233 28.3913C33.0595 28.4349 34.7483 29.0886 34.7755 29.0995L34.7809 29.105C36.7149 33.8227 34.7156 37.7397 34.6284 37.9249Z" fill="url(#paint7_linear_2_276)"/>
<path d="M29.8017 45.263L29.1207 46.2763L28.9846 46.4779L28.8211 46.7176C28.5923 46.5487 28.2055 46.2436 27.737 45.8187C27.7316 45.8187 27.7316 45.8132 27.7261 45.8132C25.7649 44.0373 22.3873 40.1694 23.0411 35.0376C23.3679 32.4935 24.6808 29.6498 27.6444 26.5881C27.737 26.6535 27.8351 26.7189 27.9331 26.7788C28.1783 26.9204 28.4398 27.0512 28.7231 27.171C28.8919 27.2364 29.0608 27.3018 29.2406 27.3617C29.0554 27.5851 28.7666 27.9392 28.4289 28.3695C26.7128 30.5487 25.34 32.7604 24.926 35.0757C24.7571 35.991 24.7408 36.9225 24.9151 37.8813C25.4762 40.943 27.5463 43.0512 28.7612 44.3696C29.1044 44.7074 29.5457 45.0615 29.8017 45.263Z" fill="#FCB316"/>
<path opacity="0.35" d="M21.8098 35.0213C21.7444 35.6641 21.5974 36.3668 21.3359 37.135C20.3117 40.1149 18.5739 45.0833 9.6123 45.1922C9.61775 45.1432 9.62865 45.0996 9.6341 45.056C9.65044 44.9634 9.66678 44.8708 9.68313 44.7836C9.7376 44.4949 9.78663 44.228 9.84111 43.9719C10.0699 43.7104 10.4022 43.498 10.8707 43.4598C16.8578 42.8333 18.7209 39.7554 19.6525 37.0315C19.8977 36.3178 20.0339 35.6369 20.0938 34.9886C20.1428 34.5146 20.1483 34.057 20.121 33.6321C20.0774 32.7986 19.9195 32.074 19.7451 31.4911C19.7124 31.3767 19.6689 31.2133 19.6144 31.0172C19.2984 29.8459 18.868 28.6256 18.6992 28.266C18.5085 27.8629 18.2742 27.3835 18.1271 27.0784C18.3559 26.9586 18.5684 26.8224 18.7645 26.6644C18.8299 26.6099 18.8953 26.55 18.9606 26.4846H18.9661C18.9715 26.4901 18.9824 26.4955 18.9879 26.5064C20.3171 27.6396 21.0744 30.2436 21.3086 31.0226C21.5102 31.6981 21.739 32.4935 21.8207 33.4414C21.8643 33.9263 21.8697 34.4492 21.8098 35.0213Z" fill="#212121"/>
<path d="M20.8021 35.0049C20.7857 35.1574 20.7639 35.3154 20.7476 35.4734C20.5733 37.0424 19.925 38.3771 19.6798 38.8892C18.4105 41.5368 15.861 44.3369 9.68321 44.7836C9.11664 44.8272 8.52284 44.849 7.8909 44.849C7.82552 44.8435 7.7547 44.8435 7.68933 44.8435C7.96717 44.4894 8.30493 43.9828 8.65903 43.3727H8.66448C9.23104 42.3975 9.85754 41.1554 10.3533 39.8752C10.7455 38.8619 11.0615 37.8159 11.2086 36.8626L11.2195 36.7863L11.2358 36.6992C11.3339 36.0672 11.4265 35.4462 11.5354 34.836C11.8133 33.2071 13.1316 29.1213 13.2678 28.8054C14.7551 28.059 16.3676 27.8302 17.6315 27.3072C17.8058 27.2419 17.9692 27.1656 18.1272 27.0784C18.356 26.9586 18.5685 26.8224 18.7646 26.6644C19.5382 27.8248 21.118 31.9705 20.8021 35.0049Z" fill="url(#paint8_linear_2_276)"/>
<path d="M21.069 35.0049C21.0036 35.773 20.8402 36.6011 20.546 37.4673C19.5872 40.2783 17.4299 44.5112 9.63415 45.056C9.08393 45.0941 8.50102 45.1159 7.89087 45.1159C7.73289 45.1159 7.58035 45.1159 7.42236 45.1105C7.52587 44.9961 8.3049 44.0046 8.659 43.3727H8.66445C8.96408 43.3727 9.44893 43.4326 10.2171 43.3672C16.2041 42.7407 18.0673 39.6627 18.9988 36.9389C19.2331 36.2579 19.3693 35.5987 19.4347 34.9777C19.5872 33.5449 19.3638 32.2974 19.0914 31.3985C19.0588 31.2841 19.0152 31.1207 18.9607 30.9245C18.6447 29.7533 18.2144 28.533 18.0455 28.1734C17.9147 27.8956 17.7622 27.5796 17.6314 27.3072C17.8058 27.2419 17.9692 27.1656 18.1272 27.0784C18.356 26.9586 18.5685 26.8224 18.7646 26.6644C18.83 26.6099 18.8953 26.55 18.9607 26.4846H18.9661C18.9661 26.4792 18.9716 26.4737 18.9716 26.4737L18.9879 26.5064C19.9358 27.9174 20.4588 30.2708 20.655 30.9245C20.9437 31.8942 21.2324 33.3161 21.069 35.0049Z" fill="#FCB316"/>
<path opacity="0.35" d="M34.6285 37.9249C34.2635 38.7039 33.7405 39.4884 33.212 40.2456C29.9706 40.1966 26.5276 39.1942 24.4956 37.9194L24.1415 37.7669L23.6022 37.5327C22.7088 37.8323 21.3141 38.3771 19.6798 38.8891C16.847 39.7771 13.2842 40.5725 10.3533 39.8752C10.7455 38.8619 11.0615 37.8159 11.2086 36.8626L11.2195 36.7863C12.5106 35.833 18.0782 35.4516 18.307 35.4516C18.3778 35.4516 19.3584 35.4625 20.7476 35.4734C21.7227 35.4843 22.8994 35.4952 24.1088 35.5061C27.4538 35.5388 34.7156 37.7397 34.6285 37.9249Z" fill="#212121"/>
<path d="M38.164 32.6733C38.371 32.9184 39.6131 34.0788 39.6022 35.2664C39.5913 36.2415 39.1882 37.4836 37.8317 38.1428C34.2416 39.897 27.5627 38.4969 24.5011 36.563C20.6931 34.1659 18.1054 32.755 18.1054 32.755C14.7605 33.4632 11.9767 31.8071 11.9767 31.8071C11.9767 31.8071 8.34303 32.5044 7.73833 32.488C6.78497 32.4662 6.55072 31.1806 7.34064 30.9082C8.8987 30.3689 12.625 28.1734 14.0741 28.2551C14.864 28.2987 22.8613 29.835 25.1602 30.4887C25.9011 30.7012 30.3519 31.4965 30.3519 31.4965" fill="#4FC3F7"/>
<path d="M25.3182 30.5323C25.3182 30.5323 32.2968 28.2224 33.8712 28.5711C37.8045 29.4427 39.6785 32.5207 39.7384 33.0818C39.5205 33.741 38.1096 34.1659 36.7149 33.8227C34.8518 33.3651 32.7435 31.9977 30.3411 31.4965C30.3411 31.4965 25.4272 30.6304 25.3182 30.5323Z" fill="#4FC3F7"/>
<path d="M39.7384 33.0819C39.6785 33.4142 39.3843 33.6757 39.0902 33.8445C38.7905 34.0189 38.4582 34.1224 38.1205 34.1932C37.4395 34.313 36.7258 34.2913 36.034 34.0407C35.3312 33.8064 34.781 33.3161 34.2907 32.9239C33.8058 32.5098 33.3755 32.2211 32.9124 32.2048L32.7272 32.1993H32.4766C32.3077 32.1993 32.1334 32.2048 31.9699 32.1993C31.6322 32.1884 31.2999 32.1721 30.9676 32.1339C30.3084 32.0468 29.6601 31.9542 29.0227 31.8016C27.7479 31.502 26.4841 31.1425 25.3182 30.5269C26.6094 30.7012 27.8896 30.8265 29.1589 30.9627C29.7963 31.0117 30.4228 31.0825 31.0547 31.1043C31.3652 31.1152 31.6812 31.137 31.9863 31.1316C32.1443 31.137 32.2914 31.1261 32.4439 31.1207L32.6781 31.1152H32.9832C33.3918 31.1479 33.8004 31.2895 34.1273 31.4911C34.4596 31.6927 34.732 31.9215 34.9717 32.1448C35.4456 32.6024 35.8651 32.9947 36.3717 33.2562C36.8675 33.5068 37.4776 33.6484 38.0769 33.6593C38.3819 33.6702 38.687 33.6375 38.9812 33.5667C39.259 33.485 39.5696 33.3651 39.7384 33.0819Z" fill="#0277BD"/>
<path d="M23.8146 36.138C23.0192 36.7264 15.5013 39.6028 10.3532 38.4479C9.1601 38.1809 7.54757 37.8486 7.17167 36.4377C6.71406 34.7053 8.75697 32.3845 8.75697 32.3845L11.9711 31.818L13.8833 32.5371C14.4608 32.755 15.0709 32.853 15.6865 32.8367L18.0999 32.7604C18.0999 32.755 24.0978 36.138 23.8146 36.138Z" fill="#4FC3F7"/>
<path d="M37.8263 38.1428C36.2628 39.0308 34.3833 39.265 32.591 39.2324C30.7823 39.1942 28.9846 38.8891 27.2468 38.3498C26.3806 38.072 25.5198 37.7451 24.7027 37.2984C24.2832 37.0696 23.9127 36.8353 23.5368 36.6011L22.4037 35.9147C20.9056 34.9831 19.3748 34.0788 17.8603 33.1908L18.198 33.2398C17.6478 33.3324 17.0921 33.4033 16.5365 33.3924C15.9808 33.3869 15.4306 33.327 14.8913 33.2235C14.3519 33.12 13.818 32.9783 13.3114 32.7768C12.7993 32.5807 12.3145 32.3573 11.8296 32.0577L12.0257 32.0904C11.3121 32.1884 10.6039 32.2756 9.88477 32.3573L8.81156 32.4608C8.45201 32.4826 8.09246 32.5153 7.73291 32.4935C8.08701 32.4554 8.43567 32.3627 8.78433 32.2865L9.83029 32.0413L11.9168 31.5401L12.0039 31.5183L12.1184 31.5728C12.5542 31.7907 13.0499 31.9705 13.5348 32.1067C14.0251 32.2429 14.5208 32.3518 15.022 32.4118C15.5232 32.4771 16.0244 32.4989 16.5256 32.4717C17.0268 32.4662 17.5171 32.3791 18.0019 32.281L18.1762 32.2483L18.3397 32.3301C19.9304 33.1581 21.4558 34.0679 22.9812 34.9831L24.1143 35.6913C24.4902 35.931 24.8661 36.1707 25.2256 36.3723C25.9665 36.7754 26.7565 37.1241 27.5682 37.4183C28.3853 37.7015 29.2188 37.9412 30.0687 38.1428C30.9185 38.328 31.7793 38.486 32.6455 38.5786C34.3615 38.7475 36.1429 38.7475 37.8263 38.1428Z" fill="#0277BD"/>
<path d="M15.1364 20.0345C14.5589 19.9092 13.5456 19.5932 12.8429 18.8578C11.5572 17.5013 11.165 14.7774 11.0669 13.7859C11.7805 13.8513 13.3985 14.1019 14.232 15.0879L15.1364 20.0345Z" fill="#039BE5"/>
<path d="M13.6328 18.8087C13.5565 19.7022 13.1098 20.4485 12.4343 20.4594C11.7588 20.4757 11.1977 19.7512 11.1813 18.8523C11.1704 18.1713 11.47 17.583 11.9113 17.3324L12.1674 17.8608C11.944 18.0134 11.7533 18.3784 11.7642 18.8469C11.7751 19.4679 12.1183 19.8928 12.4234 19.8874C12.7285 19.8819 13.0553 19.4461 13.0499 18.8251C13.0444 18.313 12.9736 18.155 12.8429 17.8717C12.6304 17.3923 12.9845 17.0219 13.3223 17.4904C13.3223 17.4904 13.7036 17.948 13.6328 18.8087Z" fill="#FCB316"/>
<path d="M31.7411 15.0879C32.5746 14.0964 34.1926 13.8513 34.9063 13.7859C34.8082 14.7774 34.416 17.5013 33.1303 18.8578C32.4275 19.5987 31.4143 19.9146 30.8368 20.0345L31.7411 15.0879Z" fill="#039BE5"/>
<path d="M22.1531 26.2776L22.8177 26.3212H23.7002C28.6086 25.9943 31.8936 21.4509 31.9971 14.2599C32.1006 7.10696 27.6934 3.50055 23.1554 3.43518C18.6175 3.36981 14.1013 6.84002 13.9978 13.9929C13.8888 21.1948 17.4952 25.9017 22.1531 26.2776Z" fill="#4FC3F7"/>
<path d="M24.0216 18.6834C23.9944 18.6725 23.9671 18.6671 23.9399 18.6616L22.0768 18.6344C22.0495 18.6398 22.0223 18.6453 21.9896 18.6562C21.8207 18.7216 21.7227 18.8959 21.7989 19.0811C21.8752 19.2663 22.2402 19.7948 22.9865 19.8057C23.7329 19.8166 24.1142 19.299 24.1959 19.1138C24.2777 18.9286 24.1851 18.7543 24.0216 18.6834Z" fill="#0277BD"/>
<path d="M25.2201 20.8298C24.3757 21.3147 21.6246 21.2766 20.7965 20.7645C20.3171 20.4703 19.8214 20.9007 20.0121 21.3419C20.2027 21.7723 21.69 22.7965 22.9865 22.8128C24.2831 22.8292 25.7812 21.854 25.9828 21.4291C26.1844 20.9933 25.705 20.552 25.2201 20.8298Z" fill="#4E342E"/>
<path d="M32.651 17.4904C32.9887 17.0219 33.3428 17.3923 33.1304 17.8717C32.9996 18.155 32.9288 18.313 32.9233 18.8251C32.9179 19.4461 33.2448 19.8819 33.5498 19.8874C33.8549 19.8928 34.1981 19.4679 34.209 18.8469C34.2199 18.3784 34.0292 18.0134 33.8059 17.8608L34.0619 17.3324C34.5032 17.583 34.8028 18.1713 34.7919 18.8523C34.7756 19.7512 34.2145 20.4757 33.5389 20.4594C32.8634 20.4485 32.4167 19.7022 32.3404 18.8087C32.2696 17.948 32.651 17.4904 32.651 17.4904Z" fill="#FCB316"/>
<path d="M18.6719 17.4795C19.388 17.4795 19.9685 16.899 19.9685 16.1829C19.9685 15.4668 19.388 14.8864 18.6719 14.8864C17.9559 14.8864 17.3754 15.4668 17.3754 16.1829C17.3754 16.899 17.9559 17.4795 18.6719 17.4795Z" fill="#212121"/>
<path d="M27.3229 17.4795C28.039 17.4795 28.6195 16.899 28.6195 16.1829C28.6195 15.4668 28.039 14.8864 27.3229 14.8864C26.6069 14.8864 26.0264 15.4668 26.0264 16.1829C26.0264 16.899 26.6069 17.4795 27.3229 17.4795Z" fill="#212121"/>
<path d="M67.1297 59.7486C64.0899 59.2637 64.3514 58.3322 64.0627 57.466L61.159 56.6161C60.4944 57.1881 59.8624 58.3757 57.3619 57.1554C56.5938 56.7796 54.0007 54.5841 54.0007 54.5841L52.0449 54.0884C52.2955 54.3172 54.4256 57.0574 56.2397 59.3509C58.506 62.2219 59.8624 62.7557 60.8594 63.0445C62.3521 63.4803 64.0845 63.2624 64.0845 63.2624C64.0845 63.2624 66.9936 63.5784 68.9874 62.8484C71.0576 62.0911 72 60.179 72 60.179C72 60.179 68.5026 59.8793 67.1297 59.7486ZM68.6606 61.9604C67.9088 62.2328 66.9936 62.3417 66.1873 62.3744C66.8846 61.8678 67.3477 61.2522 67.6364 60.751C68.1921 60.8 69.0038 60.8763 70.2023 60.9798C69.81 61.3557 69.298 61.7316 68.6606 61.9604Z" fill="url(#paint9_linear_2_276)"/>
<path d="M70.2023 60.9852C69.81 61.3611 69.298 61.7316 68.6606 61.9658C67.9088 62.2382 66.9936 62.3472 66.1873 62.3798C66.7756 61.9495 67.3477 61.2031 67.6364 60.7564C66.0021 60.8436 63.8938 60.6801 61.7583 60.0537C57.7487 58.8769 54.3602 55.1888 53.7828 54.5296L52.0449 54.0884C52.2955 54.3172 54.4256 57.0574 56.2397 59.3509C57.7705 61.2848 58.8818 62.1565 59.7535 62.6087C57.8958 62.5487 56.7899 63.6819 56.7899 63.6819L63.9646 65.7847C63.9646 65.7847 63.6432 64.2212 62.0252 63.2678C63.1311 63.3877 64.0845 63.2678 64.0845 63.2678C64.0845 63.2678 66.9936 63.5838 68.9874 62.8538C71.0576 62.0966 72 60.1844 72 60.1844L70.2023 60.9852Z" fill="url(#paint10_radial_2_276)"/>
<path d="M62.826 55.0472L61.0446 56.7469L64.1225 57.6512L63.3054 55.2106L63.9373 54.6931C64.1171 54.546 64.2097 54.3226 64.1879 54.0938L64.0735 52.7755C64.0517 52.514 63.7248 52.405 63.5505 52.6066L62.6734 53.6144C62.5046 53.8051 62.4555 54.0775 62.5481 54.3172L62.826 55.0472Z" fill="url(#paint11_radial_2_276)"/>
<path d="M63.7521 65.2072L57.2965 63.3114L58.1028 62.8865L63.2836 64.4064L63.7521 65.2072Z" fill="url(#paint12_radial_2_276)"/>
<path d="M20.5841 14.1128C20.4206 14.2762 20.1483 14.1672 19.9304 14.0583C19.3856 13.8404 18.9498 13.6769 18.3505 13.6225C17.9147 13.6225 17.261 13.6769 16.7707 13.8404C16.3348 13.9493 16.6072 13.2956 17.152 12.9143C17.5333 12.6419 17.9147 12.5329 18.7318 12.5329C19.4401 12.5329 20.2027 12.8053 20.5841 13.0777C20.8565 13.4046 20.8565 13.8949 20.5841 14.1128Z" fill="#01579B"/>
<path d="M25.4326 14.1128C25.596 14.2762 25.8684 14.1673 26.0863 14.0583C26.6311 13.8404 27.0669 13.677 27.6661 13.6225C28.102 13.6225 28.7557 13.677 29.246 13.8404C29.6818 13.9493 29.4094 13.2956 28.8646 12.9143C28.4833 12.6419 28.102 12.5329 27.2848 12.5329C26.5766 12.5329 25.8139 12.8053 25.4326 13.0777C25.1602 13.4046 25.1602 13.8949 25.4326 14.1128Z" fill="#01579B"/>
<g clip-path="url(#clip0_2_276)">
<path d="M9.15262 48.6235H4.57629V80.6578C4.57629 83.1747 6.63564 85.2341 9.15262 85.2341H41.1869V80.6578H9.15262V48.6235ZM45.7632 39.4708H18.3053C15.7883 39.4708 13.7289 41.5302 13.7289 44.0471V71.5051C13.7289 74.0221 15.7883 76.0814 18.3053 76.0814H45.7632C48.2802 76.0814 50.3396 74.0221 50.3396 71.5051V44.0471C50.3396 41.5302 48.2802 39.4708 45.7632 39.4708ZM43.4751 60.0643H20.5934V55.488H43.4751V60.0643ZM34.3224 69.2169H20.5934V64.6406H34.3224V69.2169ZM43.4751 50.9116H20.5934V46.3353H43.4751V50.9116Z" fill="#FF8F00"/>
</g>
<path d="M75.008 53V30.6H84.544C86.016 30.6 87.2533 30.8133 88.256 31.24C89.28 31.6667 90.048 32.3067 90.56 33.16C91.0933 33.992 91.36 35.0053 91.36 36.2C91.36 37.4373 91.0293 38.4827 90.368 39.336C89.7067 40.1893 88.7787 40.776 87.584 41.096L87.552 40.456C88.5547 40.6693 89.4293 41.0533 90.176 41.608C90.9227 42.1413 91.4987 42.8133 91.904 43.624C92.3307 44.4133 92.544 45.32 92.544 46.344C92.544 47.432 92.3627 48.392 92 49.224C91.6587 50.056 91.1467 50.7493 90.464 51.304C89.7813 51.8587 88.9707 52.2853 88.032 52.584C87.0933 52.8613 86.0373 53 84.864 53H75.008ZM79.072 49.256H84.672C85.4613 49.256 86.1227 49.1387 86.656 48.904C87.2107 48.6693 87.6267 48.328 87.904 47.88C88.2027 47.4107 88.352 46.856 88.352 46.216C88.352 45.6187 88.192 45.1067 87.872 44.68C87.5733 44.2533 87.136 43.9333 86.56 43.72C85.984 43.4853 85.3013 43.368 84.512 43.368H79.072V49.256ZM79.072 39.784H84.16C84.7787 39.784 85.312 39.6667 85.76 39.432C86.2293 39.1973 86.592 38.8773 86.848 38.472C87.104 38.0667 87.232 37.5973 87.232 37.064C87.232 36.2107 86.944 35.5493 86.368 35.08C85.792 34.5893 84.9493 34.344 83.84 34.344H79.072V39.784ZM104.016 53.32C102.331 53.32 100.827 52.9467 99.504 52.2C98.1813 51.432 97.136 50.3867 96.368 49.064C95.6 47.7413 95.216 46.2373 95.216 44.552C95.216 42.8667 95.6 41.3627 96.368 40.04C97.136 38.7173 98.1813 37.6827 99.504 36.936C100.827 36.168 102.331 35.784 104.016 35.784C105.68 35.784 107.173 36.168 108.496 36.936C109.819 37.6827 110.853 38.7173 111.6 40.04C112.368 41.3627 112.752 42.8667 112.752 44.552C112.752 46.2373 112.368 47.7413 111.6 49.064C110.853 50.3867 109.819 51.432 108.496 52.2C107.173 52.9467 105.68 53.32 104.016 53.32ZM104.016 49.832C104.933 49.832 105.744 49.5973 106.448 49.128C107.173 48.6587 107.739 48.0293 108.144 47.24C108.571 46.4507 108.773 45.5547 108.752 44.552C108.773 43.528 108.571 42.6213 108.144 41.832C107.739 41.0427 107.173 40.424 106.448 39.976C105.744 39.5067 104.933 39.272 104.016 39.272C103.099 39.272 102.267 39.5067 101.52 39.976C100.795 40.424 100.229 41.0533 99.824 41.864C99.4187 42.6533 99.216 43.5493 99.216 44.552C99.216 45.5547 99.4187 46.4507 99.824 47.24C100.229 48.0293 100.795 48.6587 101.52 49.128C102.267 49.5973 103.099 49.832 104.016 49.832ZM123.985 53.32C122.299 53.32 120.795 52.9467 119.473 52.2C118.15 51.432 117.105 50.3867 116.337 49.064C115.569 47.7413 115.185 46.2373 115.185 44.552C115.185 42.8667 115.569 41.3627 116.337 40.04C117.105 38.7173 118.15 37.6827 119.473 36.936C120.795 36.168 122.299 35.784 123.985 35.784C125.649 35.784 127.142 36.168 128.465 36.936C129.787 37.6827 130.822 38.7173 131.569 40.04C132.337 41.3627 132.721 42.8667 132.721 44.552C132.721 46.2373 132.337 47.7413 131.569 49.064C130.822 50.3867 129.787 51.432 128.465 52.2C127.142 52.9467 125.649 53.32 123.985 53.32ZM123.985 49.832C124.902 49.832 125.713 49.5973 126.417 49.128C127.142 48.6587 127.707 48.0293 128.113 47.24C128.539 46.4507 128.742 45.5547 128.721 44.552C128.742 43.528 128.539 42.6213 128.113 41.832C127.707 41.0427 127.142 40.424 126.417 39.976C125.713 39.5067 124.902 39.272 123.985 39.272C123.067 39.272 122.235 39.5067 121.489 39.976C120.763 40.424 120.198 41.0533 119.793 41.864C119.387 42.6533 119.185 43.5493 119.185 44.552C119.185 45.5547 119.387 46.4507 119.793 47.24C120.198 48.0293 120.763 48.6587 121.489 49.128C122.235 49.5973 123.067 49.832 123.985 49.832ZM139.922 47.848L139.154 44.168L147.154 36.136H152.402L139.922 47.848ZM136.242 53V29.32H140.178V53H136.242ZM147.634 53L141.426 45.48L144.21 43.112L152.498 53H147.634Z" fill="black"/>
<path d="M181.366 42.824C181.921 42.824 182.358 43.016 182.678 43.4C182.998 43.784 183.158 44.3173 183.158 45C183.158 45.1707 183.148 45.352 183.126 45.544C183.105 45.7147 183.073 45.864 183.03 45.992C182.582 45.8853 182.092 45.8213 181.558 45.8C181.43 46.7387 181.089 47.7307 180.534 48.776C179.98 49.8 179.308 50.7707 178.518 51.688C177.729 52.584 176.865 53.3733 175.926 54.056C174.988 54.7387 174.06 55.1973 173.142 55.432C170.284 55.368 168.193 54.6213 166.87 53.192C165.569 51.784 164.918 49.576 164.918 46.568C164.918 44.3707 165.324 42.248 166.134 40.2C166.945 38.1307 168.022 36.296 169.366 34.696C170.71 33.096 172.246 31.816 173.974 30.856C175.724 29.8747 177.537 29.384 179.414 29.384C180.886 29.384 182.028 29.6933 182.838 30.312C183.67 30.9307 184.086 31.8053 184.086 32.936C184.086 33.6827 183.905 34.376 183.542 35.016C183.201 35.656 182.625 36.3493 181.814 37.096C181.324 36.9467 180.897 36.6907 180.534 36.328C180.172 35.944 179.948 35.5067 179.862 35.016C180.588 34.4827 181.1 33.992 181.398 33.544C181.697 33.096 181.846 32.5627 181.846 31.944C181.846 30.9627 181.26 30.472 180.086 30.472C179.126 30.472 178.092 30.8347 176.982 31.56C175.894 32.264 174.796 33.288 173.686 34.632C172.108 36.5307 170.956 38.4933 170.23 40.52C169.505 42.5253 169.142 44.7867 169.142 47.304C169.142 48.2427 169.238 49.096 169.43 49.864C169.622 50.632 169.878 51.304 170.198 51.88C170.518 52.456 170.892 52.9147 171.318 53.256C171.766 53.5973 172.246 53.7893 172.758 53.832C173.441 53.6827 174.124 53.3413 174.806 52.808C175.489 52.2533 176.108 51.6133 176.662 50.888C177.238 50.1413 177.718 49.352 178.102 48.52C178.508 47.6667 178.753 46.856 178.838 46.088C178.241 46.216 177.665 46.344 177.11 46.472C176.577 46.5787 176.065 46.632 175.574 46.632C174.934 46.632 174.369 46.472 173.878 46.152C173.409 45.832 173.089 45.3947 172.918 44.84C173.302 44.6267 173.857 44.4027 174.582 44.168C175.329 43.9333 176.118 43.72 176.95 43.528C177.782 43.3147 178.593 43.144 179.382 43.016C180.193 42.888 180.854 42.824 181.366 42.824ZM195.779 39.752C195.693 41.0747 195.459 42.216 195.075 43.176C194.691 44.1147 194.136 44.9467 193.411 45.672C192.707 46.376 191.843 47.016 190.819 47.592C189.795 48.168 188.6 48.7227 187.235 49.256C187.235 49.384 187.224 49.5227 187.203 49.672C187.203 49.8 187.203 49.9387 187.203 50.088C187.203 50.3653 187.224 50.6533 187.267 50.952C187.309 51.2507 187.384 51.528 187.491 51.784C187.597 52.04 187.747 52.2533 187.939 52.424C188.131 52.5733 188.376 52.648 188.675 52.648C189.251 52.648 189.816 52.52 190.371 52.264C190.925 52.008 191.448 51.6987 191.939 51.336C192.451 50.952 192.92 50.5467 193.347 50.12C193.795 49.672 194.189 49.2667 194.531 48.904C194.744 49.096 194.925 49.2773 195.075 49.448C194.115 50.728 193.059 51.7947 191.907 52.648C190.776 53.48 189.699 54.0133 188.675 54.248C187.203 54.0773 186.051 53.544 185.219 52.648C184.408 51.7307 184.003 50.632 184.003 49.352C184.003 48.4773 184.12 47.592 184.355 46.696C184.611 45.7787 184.952 44.904 185.379 44.072C185.827 43.2187 186.339 42.4187 186.915 41.672C187.512 40.9253 188.141 40.2747 188.803 39.72C189.485 39.1653 190.179 38.728 190.883 38.408C191.608 38.088 192.323 37.928 193.027 37.928C194.008 38.056 194.925 38.664 195.779 39.752ZM193.571 40.808C192.995 40.8933 192.397 41.128 191.779 41.512C191.16 41.896 190.573 42.408 190.019 43.048C189.485 43.688 188.995 44.4347 188.547 45.288C188.099 46.1413 187.747 47.0587 187.491 48.04C189.197 47.1867 190.616 46.1413 191.747 44.904C192.877 43.6453 193.485 42.28 193.571 40.808ZM202.444 37.48C202.999 37.6507 203.522 38.0347 204.012 38.632C204.503 39.208 204.866 39.848 205.1 40.552C204.866 41.128 204.503 41.8213 204.012 42.632C203.522 43.4427 203.031 44.2747 202.54 45.128C202.05 45.96 201.602 46.76 201.196 47.528C200.812 48.2747 200.588 48.8933 200.524 49.384C200.866 49.0213 201.239 48.6053 201.644 48.136C202.071 47.6453 202.476 47.1653 202.86 46.696C203.266 46.2053 203.639 45.768 203.98 45.384C204.322 44.9787 204.588 44.68 204.78 44.488C205.186 44.0613 205.666 43.5707 206.22 43.016C206.775 42.44 207.351 41.9067 207.948 41.416C208.567 40.904 209.186 40.4773 209.804 40.136C210.423 39.7733 210.988 39.592 211.5 39.592C212.055 39.592 212.514 39.784 212.876 40.168C213.26 40.5307 213.559 40.9147 213.772 41.32C213.772 41.3627 213.687 41.4267 213.516 41.512C213.367 41.576 213.143 41.7787 212.844 42.12C212.546 42.504 212.204 43.0373 211.82 43.72C211.458 44.3813 211.095 45.1067 210.732 45.896C210.391 46.664 210.103 47.4533 209.868 48.264C209.634 49.0747 209.516 49.8107 209.516 50.472C209.516 51.0053 209.58 51.3467 209.708 51.496C209.858 51.6453 210.06 51.72 210.316 51.72C210.551 51.72 210.796 51.6667 211.052 51.56C211.308 51.4533 211.511 51.4 211.66 51.4C211.746 51.4427 211.81 51.5387 211.852 51.688C211.916 51.816 211.948 51.9333 211.948 52.04C211.778 52.1893 211.575 52.3387 211.34 52.488C211.106 52.6373 210.86 52.776 210.604 52.904C210.348 53.032 210.092 53.1387 209.836 53.224C209.602 53.3093 209.388 53.352 209.196 53.352C208.578 53.352 208.066 53.256 207.66 53.064C207.276 52.8933 206.967 52.6587 206.732 52.36C206.519 52.0613 206.37 51.7093 206.284 51.304C206.199 50.8773 206.156 50.4293 206.156 49.96C206.156 49.704 206.178 49.416 206.22 49.096C206.263 48.776 206.348 48.4027 206.476 47.976C206.604 47.528 206.786 47.0053 207.02 46.408C207.255 45.7893 207.554 45.0533 207.916 44.2C207.874 44.2 207.586 44.3493 207.052 44.648C206.519 44.9467 205.943 45.4053 205.324 46.024C204.322 46.984 203.415 47.9333 202.604 48.872C201.815 49.8107 201.004 50.856 200.172 52.008C199.703 52.6693 199.287 53.224 198.924 53.672C198.583 54.1413 198.284 54.4507 198.028 54.6C197.58 54.344 197.25 53.9813 197.036 53.512C196.823 53.064 196.663 52.5947 196.556 52.104C196.556 51.6987 196.61 51.1867 196.716 50.568C196.844 49.9493 197.004 49.2667 197.196 48.52C197.41 47.752 197.666 46.952 197.964 46.12C198.263 45.288 198.594 44.456 198.956 43.624C199.767 41.7467 200.503 40.2747 201.164 39.208C201.847 38.1413 202.274 37.5653 202.444 37.48ZM214.574 50.856C214.574 50.664 214.584 50.4293 214.606 50.152C214.648 49.8533 214.712 49.4693 214.798 49C214.883 48.5093 214.99 47.9227 215.118 47.24C215.267 46.5573 215.448 45.736 215.661 44.776C215.704 44.5627 215.8 44.2213 215.95 43.752C216.099 43.2827 216.291 42.792 216.526 42.28C216.782 41.7467 217.08 41.2347 217.422 40.744C217.784 40.2533 218.211 39.8907 218.702 39.656C219.064 39.7413 219.544 39.9653 220.142 40.328C220.739 40.6693 221.251 41.1493 221.678 41.768C221.187 42.3227 220.771 42.8773 220.43 43.432C220.11 43.9867 219.811 44.5627 219.534 45.16C219.278 45.7573 219.032 46.376 218.798 47.016C218.584 47.656 218.339 48.328 218.062 49.032C217.827 49.6293 217.614 50.248 217.422 50.888C217.23 51.5067 217.123 52.0507 217.102 52.52C217.102 52.904 217.091 53.1707 217.07 53.32C217.07 53.4907 217.016 53.576 216.91 53.576C216.824 53.576 216.654 53.5227 216.398 53.416C216.142 53.3093 215.875 53.1493 215.598 52.936C215.342 52.7013 215.107 52.4133 214.894 52.072C214.68 51.7307 214.574 51.3253 214.574 50.856ZM220.686 36.968C220.686 36.84 220.718 36.648 220.782 36.392C220.675 36.2853 220.579 36.1253 220.494 35.912C220.43 35.6987 220.398 35.5067 220.398 35.336C220.398 35.144 220.419 34.888 220.462 34.568C220.526 34.2267 220.6 33.864 220.686 33.48C220.771 33.096 220.878 32.7013 221.006 32.296C221.134 31.8693 221.262 31.4853 221.39 31.144C221.646 31.144 221.955 31.2187 222.318 31.368C222.702 31.496 223.086 31.6773 223.47 31.912C223.854 32.1253 224.206 32.3707 224.526 32.648C224.846 32.904 225.091 33.1493 225.262 33.384C225.027 33.6187 224.718 33.9493 224.334 34.376C223.95 34.7813 223.576 35.2187 223.214 35.688C222.851 36.136 222.52 36.5627 222.222 36.968C221.923 37.3733 221.731 37.6613 221.646 37.832C221.39 37.7893 221.166 37.6827 220.974 37.512C220.782 37.32 220.686 37.1387 220.686 36.968ZM233.56 39.752C233.475 41.0747 233.24 42.216 232.856 43.176C232.472 44.1147 231.917 44.9467 231.192 45.672C230.488 46.376 229.624 47.016 228.6 47.592C227.576 48.168 226.381 48.7227 225.016 49.256C225.016 49.384 225.005 49.5227 224.984 49.672C224.984 49.8 224.984 49.9387 224.984 50.088C224.984 50.3653 225.005 50.6533 225.048 50.952C225.091 51.2507 225.165 51.528 225.272 51.784C225.379 52.04 225.528 52.2533 225.72 52.424C225.912 52.5733 226.157 52.648 226.456 52.648C227.032 52.648 227.597 52.52 228.152 52.264C228.707 52.008 229.229 51.6987 229.72 51.336C230.232 50.952 230.701 50.5467 231.128 50.12C231.576 49.672 231.971 49.2667 232.312 48.904C232.525 49.096 232.707 49.2773 232.856 49.448C231.896 50.728 230.84 51.7947 229.688 52.648C228.557 53.48 227.48 54.0133 226.456 54.248C224.984 54.0773 223.832 53.544 223 52.648C222.189 51.7307 221.784 50.632 221.784 49.352C221.784 48.4773 221.901 47.592 222.136 46.696C222.392 45.7787 222.733 44.904 223.16 44.072C223.608 43.2187 224.12 42.4187 224.696 41.672C225.293 40.9253 225.923 40.2747 226.584 39.72C227.267 39.1653 227.96 38.728 228.664 38.408C229.389 38.088 230.104 37.928 230.808 37.928C231.789 38.056 232.707 38.664 233.56 39.752ZM231.352 40.808C230.776 40.8933 230.179 41.128 229.56 41.512C228.941 41.896 228.355 42.408 227.8 43.048C227.267 43.688 226.776 44.4347 226.328 45.288C225.88 46.1413 225.528 47.0587 225.272 48.04C226.979 47.1867 228.397 46.1413 229.528 44.904C230.659 43.6453 231.267 42.28 231.352 40.808Z" fill="#039BE5"/>
<defs>
<radialGradient id="paint0_radial_2_276" cx="0" cy="0" r="1" gradientUnits="userSpaceOnUse" gradientTransform="translate(26.7902 3.7252) scale(7.14385 4.71352)">
<stop offset="0.6107" stop-color="#00838F" stop-opacity="0"/>
<stop offset="1" stop-color="#00838F"/>
</radialGradient>
<radialGradient id="paint1_radial_2_276" cx="0" cy="0" r="1" gradientUnits="userSpaceOnUse" gradientTransform="translate(27.1019 4.50698) rotate(31.0257) scale(4.51866 4.33786)">
<stop offset="0.6107" stop-color="#00838F" stop-opacity="0"/>
<stop offset="1" stop-color="#00838F"/>
</radialGradient>
<radialGradient id="paint2_radial_2_276" cx="0" cy="0" r="1" gradientUnits="userSpaceOnUse" gradientTransform="translate(24.8985 2.8698) rotate(1.01423) scale(3.23288 3.17533)">
<stop stop-color="#FFEB3B"/>
<stop offset="1" stop-color="#FBAA19"/>
</radialGradient>
<radialGradient id="paint3_radial_2_276" cx="0" cy="0" r="1" gradientUnits="userSpaceOnUse" gradientTransform="translate(21.7554 59.4425) scale(33.3577 33.3577)">
<stop stop-color="#29B6F6"/>
<stop offset="1" stop-color="#0277BD"/>
</radialGradient>
<linearGradient id="paint4_linear_2_276" x1="29.8925" y1="42.5026" x2="16.0889" y2="57.5948" gradientUnits="userSpaceOnUse">
<stop stop-color="#005584" stop-opacity="0"/>
<stop offset="0.8412" stop-color="#005584"/>
</linearGradient>
<linearGradient id="paint5_linear_2_276" x1="52.0097" y1="46.16" x2="67.2277" y2="46.16" gradientUnits="userSpaceOnUse">
<stop stop-color="#54CCBE"/>
<stop offset="0.2344" stop-color="#45CABA"/>
<stop offset="0.6806" stop-color="#1FC4AE"/>
<stop offset="1" stop-color="#00BFA5"/>
</linearGradient>
<linearGradient id="paint6_linear_2_276" x1="38.2723" y1="57.9544" x2="46.0625" y2="37.565" gradientUnits="userSpaceOnUse">
<stop stop-color="#00AB94"/>
<stop offset="0.7061" stop-color="#00BFA5"/>
</linearGradient>
<linearGradient id="paint7_linear_2_276" x1="24.0668" y1="36.6283" x2="35.6209" y2="36.6283" gradientUnits="userSpaceOnUse">
<stop offset="0.0956" stop-color="#00AB94"/>
<stop offset="0.4488" stop-color="#00BFA5"/>
</linearGradient>
<linearGradient id="paint8_linear_2_276" x1="20.8019" y1="35.7567" x2="7.64825" y2="35.7567" gradientUnits="userSpaceOnUse">
<stop offset="0.0956" stop-color="#00AB94"/>
<stop offset="0.4474" stop-color="#00BFA5"/>
</linearGradient>
<linearGradient id="paint9_linear_2_276" x1="61.602" y1="58.3708" x2="59.4283" y2="64.7665" gradientUnits="userSpaceOnUse">
<stop stop-color="#00AB94"/>
<stop offset="0.5785" stop-color="#00BFA5"/>
</linearGradient>
<radialGradient id="paint10_radial_2_276" cx="0" cy="0" r="1" gradientUnits="userSpaceOnUse" gradientTransform="translate(63.5212 60.1522) rotate(-13.4498) scale(4.73923 4.43129)">
<stop offset="0.2716" stop-color="#FEBC12"/>
<stop offset="0.4999" stop-color="#FEA709"/>
<stop offset="0.809" stop-color="#FF9000"/>
</radialGradient>
<radialGradient id="paint11_radial_2_276" cx="0" cy="0" r="1" gradientUnits="userSpaceOnUse" gradientTransform="translate(63.7579 53.3151) rotate(16.3326) scale(2.05626 2.05627)">
<stop stop-color="#FEBC12"/>
<stop offset="1" stop-color="#FF8F00"/>
</radialGradient>
<radialGradient id="paint12_radial_2_276" cx="0" cy="0" r="1" gradientUnits="userSpaceOnUse" gradientTransform="translate(60.6145 63.9515) rotate(16.3326) scale(2.38922 2.38921)">
<stop stop-color="#FEF59F"/>
<stop offset="0.9044" stop-color="#FAC537"/>
<stop offset="1" stop-color="#F9BF2C"/>
</radialGradient>
<clipPath id="clip0_2_276">
<rect width="54.9159" height="54.9159" fill="white" transform="translate(0 34.8945)"/>
</clipPath>
</defs>
</svg>
